<svg width="33" height="30" viewBox="0 0 33 30" fill="none" xmlns="http://www.w3.org/2000/svg">
<path fill-rule="evenodd" clip-rule="evenodd" d="M23.85 16.65C23.85 20.875 20.425 24.3 16.2 24.3C11.975 24.3 8.55 20.875 8.55 16.65C8.55 12.425 11.975 9 16.2 9C20.425 9 23.85 12.425 23.85 16.65ZM21.15 16.65C21.15 19.3838 18.9338 21.6 16.2 21.6C13.4662 21.6 11.25 19.3838 11.25 16.65C11.25 13.9162 13.4662 11.7 16.2 11.7C18.9338 11.7 21.15 13.9162 21.15 16.65Z" fill="#CB11AB"/>
<path fill-rule="evenodd" clip-rule="evenodd" d="M24.9976 5.05309L25.2 5.4C28.1723 6.14308 29.6585 6.51462 30.6767 7.46125C31.0967 7.85163 31.4517 8.30639 31.7286 8.80844C32.4 10.0259 32.4 11.5578 32.4 14.6216V18.9C32.4 23.9912 32.4 26.5368 30.8184 28.1184C29.2368 29.7 26.6912 29.7 21.6 29.7H10.8C5.70883 29.7 3.16325 29.7 1.58162 28.1184C0 26.5368 0 23.9912 0 18.9V14.6216C0 11.5578 0 10.0259 0.671402 8.80844C0.948279 8.30639 1.30334 7.85163 1.72326 7.46125C2.74151 6.51462 4.22768 6.14308 7.2 5.4L7.40236 5.0531C8.75221 2.73907 9.42713 1.58206 10.489 0.885268C10.6677 0.767971 10.8533 0.661393 11.0447 0.566097C12.1816 0 13.521 0 16.2 0C18.879 0 20.2184 0 21.3553 0.566097C21.5467 0.661393 21.7323 0.767971 21.911 0.885268C22.9729 1.58206 23.6478 2.73907 24.9976 5.05309ZM23.4412 7.74339L24.5452 8.01938C26.0791 8.40287 27.0536 8.64918 27.7806 8.90319C28.4631 9.14167 28.706 9.31569 28.8384 9.43872C29.0483 9.63391 29.2259 9.86129 29.3643 10.1123C29.4516 10.2706 29.5615 10.5484 29.6273 11.2684C29.6974 12.0353 29.7 13.0404 29.7 14.6216V18.9C29.7 21.5219 29.6943 23.2167 29.5264 24.4655C29.3689 25.6366 29.1147 26.0037 28.9092 26.2092C28.7037 26.4147 28.3366 26.6689 27.1655 26.8264C25.9167 26.9943 24.2219 27 21.6 27H10.8C8.17809 27 6.48327 26.9943 5.2345 26.8264C4.0634 26.6689 3.69635 26.4147 3.49081 26.2092C3.28528 26.0037 3.03108 25.6366 2.87363 24.4655C2.70573 23.2167 2.7 21.5219 2.7 18.9V14.6216C2.7 13.0404 2.70261 12.0353 2.77272 11.2684C2.83853 10.5484 2.94844 10.2706 3.0357 10.1123C3.17414 9.86129 3.35167 9.63391 3.56163 9.43872C3.69397 9.31569 3.93689 9.14167 4.61942 8.90319C5.34644 8.64918 6.32091 8.40287 7.85485 8.01938L8.95882 7.74339L9.73456 6.41356C10.4327 5.21672 10.8722 4.46804 11.2589 3.92055C11.6168 3.41392 11.8219 3.24 11.9703 3.14263C12.0597 3.08399 12.1524 3.0307 12.2481 2.98305C12.407 2.90395 12.6606 2.81442 13.2785 2.76056C13.9463 2.70236 14.8144 2.7 16.2 2.7C17.5856 2.7 18.4537 2.70236 19.1215 2.76056C19.7394 2.81442 19.993 2.90395 20.1519 2.98305C20.2476 3.0307 20.3403 3.08399 20.4297 3.14263C20.5781 3.24 20.7832 3.41392 21.1411 3.92055C21.5278 4.46805 21.9673 5.21672 22.6654 6.41356L23.4412 7.74339Z" fill="#CB11AB"/>
</svg>
