<svg width="23" height="22" viewBox="0 0 23 22" fill="none" xmlns="http://www.w3.org/2000/svg">
<path d="M0.226992 10.227C0.0816516 10.3723 0 10.5695 0 10.775C0 10.9805 0.0816514 11.1777 0.226992 11.323L10.227 21.323C10.5296 21.6257 11.0204 21.6257 11.323 21.323C11.6257 21.0204 11.6257 20.5296 11.323 20.227L2.64602 11.55H21.775C22.203 11.55 22.55 11.203 22.55 10.775C22.55 10.347 22.203 10 21.775 10H2.64601L11.323 1.32301C11.6257 1.02035 11.6257 0.529648 11.323 0.226992C11.0204 -0.0756641 10.5296 -0.075664 10.227 0.226992L0.226992 10.227Z" fill="#9797AF"/>
</svg>
