<svg width="36" height="36" viewBox="0 0 36 36" fill="none" xmlns="http://www.w3.org/2000/svg">
<g clip-path="url(#clip0_207_16771)">
<path d="M19.708 5.40283C23.4404 5.42344 25.4613 5.58805 26.7793 6.90576C27.8639 7.99041 28.1658 9.55158 28.251 12.1509L32.0684 9.92529C32.9034 9.43827 33.9352 9.43504 34.7734 9.9165C35.6115 10.3981 36.1289 11.2907 36.1289 12.2573V23.3999C36.1288 24.3665 35.6116 25.2602 34.7734 25.7417C33.9353 26.2229 32.9033 26.2188 32.0684 25.7319L28.252 23.5054C28.1669 26.1049 27.864 27.6657 26.7793 28.7505C25.4613 30.0685 23.4406 30.2338 19.708 30.2544L18 30.2573H10.2861L8.57813 30.2544C4.84523 30.2338 2.82388 30.0685 1.50586 28.7505C-9.94544e-05 27.2442 1.59072e-10 24.8195 1.59072e-10 19.9712V15.686C1.59072e-10 10.8373 -0.000448704 8.41207 1.50586 6.90576C2.82388 5.58774 4.84523 5.42343 8.57813 5.40283L10.2861 5.3999H18L19.708 5.40283ZM10.2861 8.1001C7.78544 8.1001 6.1807 8.10568 5.00195 8.26416C3.90122 8.4122 3.5829 8.64708 3.41504 8.81494C3.24718 8.9828 3.0123 9.30112 2.86426 10.4019C2.70578 11.5806 2.7002 13.1853 2.7002 15.686V19.9712C2.7002 22.4717 2.70582 24.0757 2.86426 25.2544C3.01219 26.3547 3.24718 26.6733 3.41504 26.8413C3.5829 27.0092 3.90119 27.245 5.00195 27.3931C6.1807 27.5515 7.78544 27.5571 10.2861 27.5571H18C20.5006 27.5571 22.1045 27.5515 23.2832 27.3931C24.3843 27.245 24.7022 27.0092 24.8701 26.8413C25.038 26.6734 25.2739 26.3553 25.4219 25.2544C25.5803 24.0757 25.5859 22.4717 25.5859 19.9712V15.686C25.5859 13.1853 25.5804 11.5806 25.4219 10.4019C25.2738 9.30107 25.038 8.9828 24.8701 8.81494C24.7022 8.64708 24.3837 8.41211 23.2832 8.26416C22.1045 8.1057 20.5006 8.1001 18 8.1001H10.2861ZM28.2861 15.2573V20.3999L33.4287 23.3999V12.2573L28.2861 15.2573Z" fill="#CB11AB"/>
</g>
<defs>
<clipPath id="clip0_207_16771">
<rect width="36" height="36" fill="white"/>
</clipPath>
</defs>
</svg>
